<?xml version="1.0" encoding="utf-8"?>
<!-- Generator: Adobe Illustrator 27.5.0, SVG Export Plug-In . SVG Version: 6.00 Build 0)  -->
<svg version="1.1" xmlns="http://www.w3.org/2000/svg" xmlns:xlink="http://www.w3.org/1999/xlink" x="0px" y="0px"
	 viewBox="0 0 2100 2100" style="enable-background:new 0 0 2100 2100;" xml:space="preserve">
<g id="Layer_2">
	<g>
		<rect style="fill:#FFFFC3;" width="2100" height="2100"/>
		<ellipse style="fill:#FFC095;" cx="1050" cy="1819.713" rx="615.921" ry="99.802"/>
	</g>
</g>
<g id="Layer_1">
	<g>
		<g>
			<polygon style="fill:#FFDE27;" points="923.117,635.24 843.455,499.595 548.012,499.595 627.673,635.24 			"/>
			
				<ellipse transform="matrix(0.3858 -0.9226 0.9226 0.3858 -67.5359 1033.7183)" style="fill:#FE2D55;" cx="742.641" cy="567.584" rx="33.357" ry="51.915"/>
			<path style="fill:#7F115D;" d="M764.749,620.504c21.661,0,38.673-8.019,46.677-21.998c6.977-12.19,6.145-27.41-2.282-41.76
				c-15.539-26.458-55.215-47.187-90.325-47.187c-21.66,0-38.673,8.019-46.676,21.999c-6.978,12.19-6.146,27.413,2.281,41.765
				C689.962,599.777,729.638,620.504,764.749,620.504z M700.552,547.82c1.094-1.91,6.32-5.525,18.267-5.525
				c23.375,0,52.392,14.497,62.099,31.025c2.25,3.833,3.055,7.252,2.098,8.923c-1.094,1.91-6.32,5.525-18.267,5.525
				c-23.375,0-52.392-14.497-62.098-31.022C700.4,552.912,699.595,549.491,700.552,547.82z"/>
			<path style="fill:#FE2D55;" d="M906.872,1253.248l168.443,59.602c-37.887-56.644-76.175-141.585-93.605-182.134
				C960.068,1155.965,929.129,1209.55,906.872,1253.248z"/>
			<path style="fill:#FFAEFF;" d="M1718.692,1389.2l-552.88-781.952H944.639l21.183,36.07c2.972,5.061,3.007,11.328,0.091,16.42
				c-2.915,5.095-8.335,8.238-14.204,8.238H618.305c-5.804,0-11.174-3.074-14.113-8.079l-30.92-52.65H352.995l489.467,833.461
				L1718.692,1389.2z M526.377,728.453c2.814-5.267,8.272-8.583,14.242-8.655l617.53-7.376c5.363-0.013,10.436,2.513,13.545,6.897
				l403.422,568.796c3.342,4.711,3.952,10.833,1.607,16.113c-2.343,5.278-7.296,8.928-13.032,9.608l-433.426,51.36
				c-0.006,0.001-0.012,0.001-0.018,0.002l-0.047,0.005c-0.641,0.077-1.283,0.116-1.926,0.116c-0.002,0-0.004-0.001-0.006-0.001
				c-0.003,0-0.006,0.001-0.009,0.001c-0.857,0-1.715-0.085-2.569-0.221c-0.238-0.038-0.47-0.104-0.706-0.152
				c-0.613-0.126-1.22-0.277-1.822-0.476c-0.114-0.038-0.234-0.051-0.348-0.091l-244.305-86.447
				c-0.015-0.005-0.028-0.014-0.042-0.019c-0.559-0.2-1.114-0.427-1.66-0.692c-0.178-0.087-0.342-0.191-0.515-0.284
				c-0.146-0.077-0.289-0.156-0.432-0.238c-0.698-0.398-1.364-0.83-1.981-1.313c-0.036-0.028-0.067-0.06-0.103-0.088
				c-0.629-0.5-1.209-1.045-1.749-1.623c-0.06-0.065-0.124-0.125-0.184-0.191c-0.542-0.599-1.031-1.236-1.475-1.902
				c-0.033-0.05-0.077-0.091-0.11-0.142L527.104,745.101C523.842,740.099,523.564,733.72,526.377,728.453z"/>
			<path style="fill:#FEC870;" d="M980.048,1089.059c4.087-2.253,8.938-2.654,13.341-1.107c4.402,1.55,7.933,4.904,9.707,9.219
				c22.68,55.212,88.546,200.762,129.682,234.764l399.693-47.363l-382.512-539.316l-579.167,6.917l311.341,477.547
				C904.95,1185.573,949.192,1106.086,980.048,1089.059z M751.147,879.212c-8.474,0-15.646-6.531-16.301-15.122
				c-0.689-9.013,6.06-16.878,15.073-17.565l381.495-29.13c8.996-0.716,16.878,6.058,17.565,15.073
				c0.689,9.013-6.06,16.878-15.073,17.565l-381.495,29.13C751.987,879.196,751.565,879.212,751.147,879.212z M808.462,965.615
				c-8.474,0-15.646-6.531-16.301-15.122c-0.689-9.013,6.06-16.878,15.073-17.565l381.495-29.13
				c9.001-0.716,16.878,6.058,17.565,15.073c0.689,9.013-6.06,16.878-15.073,17.565l-381.495,29.13
				C809.302,965.599,808.88,965.615,808.462,965.615z M865.47,1052.018c-8.474,0-15.646-6.531-16.301-15.122
				c-0.689-9.013,6.06-16.878,15.073-17.565l381.495-29.13c9.012-0.713,16.877,6.058,17.565,15.073
				c0.689,9.013-6.06,16.878-15.073,17.565l-381.495,29.13C866.31,1052.003,865.888,1052.018,865.47,1052.018z"/>
			<path style="fill:#A21671;" d="M833.419,1474.004c-5.778,0-11.16-3.056-14.11-8.081L341.41,652.162l1.522,145.893
				l447.313,750.314l896.133-52.681l35.796-73.902l-887.792,52.189C834.061,1473.994,833.739,1474.004,833.419,1474.004z"/>
			<path style="fill:#7F115D;" d="M1765.381,1402.652c0-0.158-0.026-0.342-0.052-0.501c-0.053-0.501-0.132-1.002-0.211-1.529
				c-0.053-0.132-0.079-0.29-0.106-0.448c-0.132-0.633-0.316-1.239-0.527-1.845c-0.053-0.132-0.105-0.238-0.132-0.343
				c-0.211-0.501-0.422-1.001-0.659-1.476c-0.079-0.158-0.158-0.316-0.237-0.475c-0.29-0.553-0.633-1.081-0.975-1.581
				c-0.026-0.026-0.026-0.079-0.053-0.079l-0.026-0.053c-0.026-0.026-0.053-0.079-0.079-0.106l-574.67-812.774
				c-3.058-4.349-8.04-6.933-13.366-6.933H925.401l-58.471-99.57c-2.926-5.009-8.304-8.067-14.104-8.067H519.423
				c-0.685,0-1.344,0.053-2.003,0.132c-0.158,0-0.343,0.053-0.501,0.079c-0.501,0.053-1.002,0.158-1.503,0.29
				c-0.158,0.026-0.316,0.079-0.474,0.132c-1.266,0.343-2.478,0.844-3.585,1.503c-0.132,0.053-0.264,0.158-0.395,0.237
				c-0.422,0.237-0.844,0.528-1.239,0.817c-0.158,0.105-0.29,0.211-0.448,0.317c-0.501,0.422-0.975,0.817-1.423,1.265
				c-0.026,0.026-0.026,0.026-0.026,0.053c-0.448,0.448-0.87,0.923-1.265,1.423c-0.106,0.132-0.211,0.264-0.317,0.422
				c-0.316,0.422-0.606,0.87-0.87,1.344c-0.053,0.079-0.105,0.132-0.158,0.211c-0.026,0.026-0.026,0.079-0.053,0.105
				c-0.316,0.58-0.633,1.186-0.87,1.819c-0.026,0.052-0.053,0.132-0.079,0.184c-0.211,0.553-0.396,1.107-0.554,1.661
				c-0.053,0.158-0.079,0.343-0.132,0.501c-0.105,0.501-0.211,1.002-0.29,1.503c-0.026,0.158-0.053,0.316-0.053,0.474
				c-0.079,0.606-0.132,1.239-0.132,1.872v91.293H324.237c-0.633,0-1.265,0.053-1.872,0.132c-0.158,0.026-0.316,0.053-0.501,0.079
				c-0.501,0.079-0.976,0.184-1.477,0.316c-0.184,0.026-0.342,0.079-0.501,0.132c-0.554,0.158-1.081,0.342-1.608,0.527
				c-0.079,0.053-0.158,0.079-0.237,0.106c-0.606,0.263-1.186,0.553-1.766,0.87c-0.105,0.079-0.184,0.132-0.29,0.184
				c-0.448,0.29-0.896,0.58-1.318,0.897c-0.158,0.105-0.29,0.211-0.422,0.316c-0.448,0.343-0.844,0.711-1.239,1.081
				c-0.079,0.079-0.158,0.132-0.237,0.211c-0.448,0.448-0.87,0.949-1.266,1.45c-0.079,0.132-0.184,0.237-0.264,0.369
				c-0.316,0.422-0.606,0.896-0.896,1.344c-0.053,0.079-0.105,0.158-0.158,0.237c-0.026,0.026-0.026,0.079-0.053,0.132
				c-0.659,1.16-1.16,2.399-1.503,3.691c-0.053,0.158-0.079,0.29-0.106,0.422c-0.132,0.501-0.237,1.028-0.316,1.529
				c0,0.158-0.026,0.343-0.053,0.501c-0.079,0.58-0.106,1.186-0.106,1.792c0,0.053-0.026,0.106-0.026,0.158
				c0.026,0.026,0,0.053,0,0.053l2.214,211.768c0.026,2.9,0.844,5.721,2.32,8.225l454.669,762.633
				c2.953,4.982,8.304,7.987,14.051,7.987c0.316,0,0.633,0,0.949-0.026l915.666-53.832c5.905-0.342,11.177-3.849,13.761-9.2
				l52.145-107.637c0-0.026,0-0.026,0-0.052c0.026,0,0.026,0,0.026,0c0-0.026,0-0.053,0.026-0.079
				c0.264-0.58,0.501-1.187,0.712-1.766c0.053-0.184,0.105-0.343,0.158-0.501c0.158-0.527,0.29-1.028,0.369-1.555
				c0.053-0.132,0.079-0.263,0.105-0.422C1765.407,1405.262,1765.486,1403.943,1765.381,1402.652z M843.467,499.587l79.64,135.66
				H627.666l-79.667-135.66H843.467z M573.281,607.251l30.923,52.645c2.926,5.009,8.304,8.093,14.104,8.093h333.403
				c5.879,0,11.283-3.163,14.209-8.251c2.9-5.088,2.873-11.362-0.106-16.424l-21.169-36.064h221.179l552.869,781.957
				l-876.228,51.512L352.998,607.251H573.281z M1686.373,1495.684l-896.131,52.698L342.928,798.06l-1.529-145.888l477.921,813.749
				c2.953,5.035,8.331,8.093,14.104,8.093c0.316,0,0.633-0.026,0.949-0.026l887.801-52.197L1686.373,1495.684z"/>
			<path style="fill:#7F115D;" d="M870.369,1271.585c0.444,0.666,0.932,1.303,1.475,1.902c0.06,0.066,0.123,0.126,0.184,0.191
				c0.54,0.577,1.12,1.122,1.749,1.623c0.035,0.028,0.067,0.06,0.103,0.088c0.617,0.482,1.284,0.915,1.981,1.313
				c0.143,0.082,0.286,0.16,0.432,0.238c0.174,0.093,0.337,0.197,0.515,0.284c0.546,0.265,1.101,0.492,1.66,0.692
				c0.014,0.005,0.027,0.013,0.042,0.019l244.305,86.447c0.114,0.04,0.234,0.053,0.348,0.091c0.602,0.199,1.209,0.35,1.822,0.476
				c0.236,0.049,0.468,0.114,0.706,0.152c0.854,0.136,1.712,0.221,2.569,0.221c0.003,0,0.006-0.001,0.009-0.001
				c0.002,0,0.004,0.001,0.006,0.001c0.642,0,1.285-0.039,1.926-0.116l0.047-0.005c0.006-0.001,0.012-0.001,0.018-0.002
				l433.426-51.36c5.736-0.68,10.689-4.33,13.032-9.608c2.345-5.28,1.735-11.402-1.607-16.113l-403.422-568.796
				c-3.11-4.384-8.183-6.91-13.545-6.897l-617.53,7.376c-5.97,0.072-11.428,3.388-14.242,8.655
				c-2.813,5.267-2.535,11.647,0.727,16.649l343.154,526.341C870.291,1271.493,870.335,1271.535,870.369,1271.585z
				 M906.872,1253.248c22.257-43.697,53.196-97.282,74.838-122.532c17.43,40.549,55.718,125.49,93.605,182.134L906.872,1253.248z
				 M1149.958,745.256l382.512,539.316l-399.693,47.363c-41.136-34.002-107.001-179.552-129.682-234.764
				c-1.774-4.315-5.305-7.669-9.707-9.219c-4.402-1.547-9.254-1.146-13.341,1.107c-30.856,17.027-75.098,96.514-97.915,140.661
				L570.791,752.173L1149.958,745.256z"/>
			<path style="fill:#7F115D;" d="M1148.98,832.468c-0.688-9.016-8.569-15.789-17.565-15.073l-381.495,29.13
				c-9.013,0.687-15.762,8.552-15.073,17.565c0.655,8.591,7.828,15.122,16.301,15.122c0.418,0,0.841-0.016,1.264-0.049
				l381.495-29.13C1142.92,849.346,1149.668,841.481,1148.98,832.468z"/>
			<path style="fill:#7F115D;" d="M1206.295,918.871c-0.688-9.016-8.564-15.789-17.565-15.073l-381.495,29.13
				c-9.013,0.687-15.762,8.552-15.073,17.565c0.655,8.591,7.828,15.122,16.301,15.122c0.418,0,0.841-0.015,1.264-0.049
				l381.495-29.13C1200.234,935.749,1206.983,927.884,1206.295,918.871z"/>
			<path style="fill:#7F115D;" d="M1263.303,1005.274c-0.689-9.016-8.554-15.786-17.565-15.073l-381.495,29.13
				c-9.013,0.687-15.762,8.552-15.073,17.565c0.655,8.591,7.828,15.122,16.301,15.122c0.418,0,0.841-0.015,1.264-0.049
				l381.495-29.13C1257.243,1022.152,1263.991,1014.287,1263.303,1005.274z"/>
			<path style="fill:#FFFFFF;" d="M556.838,647.872l-141.099,1.818c-4.796,0.062-8.786-3.875-8.786-8.671l0,0
				c0-4.54,3.591-8.176,8.132-8.235l141.099-1.818c4.796-0.062,8.786,3.875,8.786,8.671l0,0
				C564.97,644.177,561.379,647.814,556.838,647.872z"/>
		</g>
		<g>
			<polygon style="fill:#FFDE27;" points="1216.202,768.805 1228.024,781.804 1251.658,807.79 1263.481,820.789 1274.911,810.392 
				1227.632,758.409 			"/>
			<path style="fill:#FFFFFF;" d="M1192.702,817.722c0.904,6.804-2.425,16.323-10.105,29.139
				c13.485-6.434,23.276-8.847,29.964-7.304l26.494-24.096l-19.859-21.835L1192.702,817.722z"/>
			<polygon style="fill:#A21671;" points="1538.386,492.069 1238.497,748.826 1285.524,800.532 1569.492,526.27 			"/>
			
				<rect x="1635.959" y="327.742" transform="matrix(0.7398 -0.6728 0.6728 0.7398 226.3377 1260.3468)" style="fill:#FFDE27;" width="213.359" height="19.61"/>
			<polygon style="fill:#FFDE27;" points="1808.614,230.007 1820.806,243.412 1843.745,268.634 1855.937,282.039 1867.982,271.084 
				1820.659,219.052 			"/>
			<polygon style="fill:#FFDE27;" points="1540.994,473.407 1544.373,477.123 1584.937,521.723 1588.317,525.44 1602.843,512.228 
				1555.52,460.196 			"/>
			<path style="fill:#A21671;" d="M1674.703,432.167c-2.959,2.691-7.54,2.474-10.231-0.484l-22.94-25.222
				c-2.691-2.959-2.474-7.54,0.485-10.231L1805.217,247.8l-7.319-8.047L1566.236,450.45l47.323,52.032l231.662-210.696l-7.319-8.048
				L1674.703,432.167z"/>
			<path style="fill:#7F115D;" d="M1883.571,266.696l-57.069-62.748c-2.691-2.959-7.272-3.176-10.231-0.484L1525.89,467.565
				c-2.959,2.691-3.176,7.272-0.485,10.231l3.231,3.553l-305.228,261.328c-0.564,0.483-1.043,1.045-1.429,1.662
				c-0.709,0.41-1.386,0.895-2.016,1.468l-15.582,14.172c-4.764,4.333-5.116,11.734-0.783,16.498l5.852,6.435l-30.116,27.391
				c-2.779,2.527-3.139,6.72-0.944,9.672c0.125,1.952-1.517,9.093-10.703,23.452c-6.809,10.644-14.989,20.839-18.664,24.181
				c-2.959,2.691-3.176,7.272-0.485,10.231s7.272,3.176,10.231,0.484c3.674-3.342,14.597-10.521,25.837-16.293
				c15.164-7.787,22.428-8.746,24.36-8.437c2.731,2.464,6.94,2.502,9.718-0.025l30.116-27.391l5.852,6.434
				c4.333,4.764,11.735,5.114,16.499,0.782l15.582-14.172c0.6-0.546,1.129-1.14,1.588-1.771c0.692-0.332,1.335-0.77,1.898-1.314
				l289.023-279.145l3.232,3.554c2.691,2.959,7.272,3.175,10.231,0.484l290.382-264.102
				C1886.045,274.235,1886.262,269.655,1883.571,266.696z M1212.561,839.557c-6.688-1.543-16.479,0.87-29.964,7.304
				c7.681-12.816,11.009-22.335,10.105-29.139l26.494-24.096l19.859,21.835L1212.561,839.557z M1263.481,820.789l-11.823-12.999
				l-23.634-25.986l-11.822-12.999l11.431-10.396l47.279,51.984L1263.481,820.789z M1238.497,748.826l299.889-256.756l31.106,34.201
				l-283.968,274.262L1238.497,748.826z M1588.317,525.44l-3.38-3.716l-40.564-44.6l-3.38-3.716l14.526-13.211l47.323,52.032
				L1588.317,525.44z M1613.559,502.482l-47.323-52.032l231.662-210.696l7.319,8.047L1642.018,396.23
				c-2.959,2.691-3.176,7.272-0.485,10.231l22.94,25.222c2.691,2.959,7.272,3.176,10.231,0.484l163.199-148.429l7.319,8.048
				L1613.559,502.482z M1657.121,402.072l157.841-143.556l13.194,14.507l-157.841,143.556L1657.121,402.072z M1855.937,282.039
				l-12.192-13.405l-22.94-25.222l-12.192-13.405l12.045-10.955l47.323,52.032L1855.937,282.039z"/>
		</g>
	</g>
</g>
</svg>
