<?xml version="1.0" standalone="no"?>
<!DOCTYPE svg PUBLIC "-//W3C//DTD SVG 20010904//EN"
 "http://www.w3.org/TR/2001/REC-SVG-20010904/DTD/svg10.dtd">
<svg version="1.0" xmlns="http://www.w3.org/2000/svg"
 width="915.000000pt" height="911.000000pt" viewBox="0 0 915.000000 911.000000"
 preserveAspectRatio="xMidYMid meet">

<g transform="translate(0.000000,911.000000) scale(0.100000,-0.100000)"
fill="#000000" stroke="none">
<path d="M4493 8623 c15 -2 37 -2 50 0 12 2 0 4 -28 4 -27 0 -38 -2 -22 -4z"/>
<path d="M7160 7656 c0 -2 8 -10 18 -17 15 -13 16 -12 3 4 -13 16 -21 21 -21
13z"/>
<path d="M2864 6435 c0 -110 2 -156 3 -103 2 53 2 143 0 200 -1 57 -3 13 -3
-97z"/>
<path d="M6233 6565 c0 -38 2 -53 4 -32 2 20 2 52 0 70 -2 17 -4 1 -4 -38z"/>
<path d="M6234 6295 c0 -55 1 -76 3 -47 2 29 2 74 0 100 -2 26 -3 2 -3 -53z"/>
<path d="M2864 6075 c0 -71 1 -99 3 -62 2 37 2 96 0 130 -2 34 -3 4 -3 -68z"/>
<path d="M3435 6114 c-38 -35 -69 -69 -67 -75 1 -6 -2 -8 -7 -5 -5 4 -12 2
-16 -4 -11 -18 -41 -11 -84 21 -24 17 -45 28 -48 26 -2 -3 19 -36 48 -74 29
-37 54 -70 56 -72 7 -9 62 65 58 77 -3 7 -1 11 3 8 10 -6 135 141 130 154 -2
5 -34 -20 -73 -56z"/>
<path d="M6235 4785 c0 -731 1 -1029 2 -662 2 368 2 966 0 1330 -1 364 -2 64
-2 -668z"/>
<path d="M3890 6010 l0 -60 1060 0 1060 0 0 60 0 60 -1060 0 -1060 0 0 -60z"/>
<path d="M7346 5563 c-37 -137 -83 -302 -101 -368 -19 -66 -93 -336 -165 -600
-72 -264 -163 -592 -201 -729 -38 -138 -68 -251 -66 -252 6 -5 190 -55 192
-52 1 2 71 253 155 558 83 305 192 699 240 875 49 176 114 414 145 529 31 115
59 215 61 221 3 8 -29 22 -88 38 -52 15 -96 27 -99 27 -3 0 -36 -111 -73 -247z"/>
<path d="M3430 5350 c-41 -38 -74 -73 -73 -78 4 -20 -66 -5 -101 22 -21 15
-39 26 -42 24 -5 -6 93 -142 105 -146 5 -1 33 30 63 70 31 40 73 94 93 121 21
26 36 49 34 51 -2 2 -38 -27 -79 -64z"/>
<path d="M3890 5260 l0 -60 1060 0 1060 0 0 60 0 60 -1060 0 -1060 0 0 -60z"/>
<path d="M3420 4580 c-47 -43 -92 -79 -101 -80 -9 0 -35 14 -58 31 -24 17 -45
28 -48 26 -5 -5 98 -146 107 -146 3 -1 24 22 45 51 22 29 64 81 93 115 30 35
52 68 50 73 -2 6 -41 -26 -88 -70z"/>
<path d="M453 4590 c0 -25 2 -35 4 -22 2 12 2 32 0 45 -2 12 -4 2 -4 -23z"/>
<path d="M3890 4510 l0 -60 1060 0 1060 0 0 60 0 60 -1060 0 -1060 0 0 -60z"/>
<path d="M8603 4525 c0 -27 2 -38 4 -22 2 15 2 37 0 50 -2 12 -4 0 -4 -28z"/>
<path d="M3890 3760 l0 -60 1060 0 1060 0 0 60 0 60 -1060 0 -1060 0 0 -60z"/>
<path d="M2862 3630 c0 -14 2 -19 5 -12 2 6 2 18 0 25 -3 6 -5 1 -5 -13z"/>
<path d="M2864 3370 c0 -124 2 -174 3 -112 2 61 2 163 0 225 -1 61 -3 11 -3
-113z"/>
<path d="M3890 3010 l0 -60 1060 0 1060 0 0 60 0 60 -1060 0 -1060 0 0 -60z"/>
<path d="M2863 2985 c0 -44 2 -61 4 -37 2 23 2 59 0 80 -2 20 -4 1 -4 -43z"/>
<path d="M2861 2794 c0 -11 3 -14 6 -6 3 7 2 16 -1 19 -3 4 -6 -2 -5 -13z"/>
<path d="M2864 2585 c0 -66 1 -92 3 -57 2 34 2 88 0 120 -2 31 -3 3 -3 -63z"/>
<path d="M6234 2525 c0 -60 1 -84 3 -52 2 32 2 81 0 110 -2 29 -3 3 -3 -58z"/>
<path d="M2861 2444 c0 -11 3 -14 6 -6 3 7 2 16 -1 19 -3 4 -6 -2 -5 -13z"/>
<path d="M2893 2403 c9 -2 23 -2 30 0 6 3 -1 5 -18 5 -16 0 -22 -2 -12 -5z"/>
<path d="M3008 2403 c39 -2 105 -2 145 0 39 1 7 3 -73 3 -80 0 -112 -2 -72 -3z"/>
<path d="M5623 2403 c104 -2 270 -2 370 0 100 1 16 2 -188 2 -203 0 -285 -1
-182 -2z"/>
<path d="M6188 2403 c7 -3 16 -2 19 1 4 3 -2 6 -13 5 -11 0 -14 -3 -6 -6z"/>
<path d="M7659 1953 c-13 -16 -12 -17 4 -4 16 13 21 21 13 21 -2 0 -10 -8 -17
-17z"/>
<path d="M4498 473 c17 -2 47 -2 65 0 17 2 3 4 -33 4 -36 0 -50 -2 -32 -4z"/>
</g>
</svg>
